<svg xmlns="http://www.w3.org/2000/svg" viewBox="0 0 512 512">
  <rect width="512" height="512" rx="112" fill="#A294F9"/>
  <path fill="#F5EFFF" d="M126 318c61-7 106-28 136-63 27-31 63-48 108-51 14-1 28 8 32 22l20 72c4 14-5 29-20 32-95 20-186 30-273 30-12 0-22-9-23-21-1-11 8-20 20-21Z"/>
  <path fill="#CDC1FF" d="M160 306c42-10 74-28 96-54 11-13 24-24 39-32l22 39c-31 24-73 40-126 49l-31-2Z"/>
  <circle cx="176" cy="356" r="22" fill="#1f1a2e"/>
  <circle cx="362" cy="328" r="22" fill="#1f1a2e"/>
</svg>
